<svg version="1.1" viewBox="0.0 0.0 480.0 480.0" fill="none" stroke="none" stroke-linecap="square" stroke-miterlimit="10" xmlns:xlink="http://www.w3.org/1999/xlink" xmlns="http://www.w3.org/2000/svg"><clipPath id="p.0"><path d="m0 0l480.0 0l0 480.0l-480.0 0l0 -480.0z" clip-rule="nonzero"/></clipPath><g clip-path="url(#p.0)"><path fill="#000000" fill-opacity="0.0" d="m0 0l480.0 0l0 480.0l-480.0 0z" fill-rule="evenodd"/><path fill="#000000" fill-opacity="0.0" d="m414.95236 253.21643l16.566925 -8.18898l-7.9370117 -16.031494l-16.566925 8.18898z" fill-rule="evenodd"/><path stroke="#000000" stroke-width="1.0" stroke-linejoin="round" stroke-linecap="butt" d="m414.95236 253.21643l16.566925 -8.18898l-7.9370117 -16.031494l-16.566925 8.18898z" fill-rule="evenodd"/><g filter="url(#shadowFilter-p.1)"><use xlink:href="#p.1" transform="matrix(1.0 0.0 0.0 1.0 0.0 2.0)"/></g><defs><filter id="shadowFilter-p.1" filterUnits="userSpaceOnUse"><feGaussianBlur in="SourceAlpha" stdDeviation="2.0" result="blur"/><feComponentTransfer in="blur" color-interpolation-filters="sRGB"><feFuncR type="linear" slope="0" intercept="0.0"/><feFuncG type="linear" slope="0" intercept="0.0"/><feFuncB type="linear" slope="0" intercept="0.0"/><feFuncA type="linear" slope="0.5" intercept="0"/></feComponentTransfer></filter></defs><g id="p.1"><path fill="#000000" fill-opacity="0.0" d="m48.0 48.0l384.0 0l0 384.0l-384.0 0z" fill-rule="evenodd"/><path stroke="#000000" stroke-width="1.0" stroke-linejoin="round" stroke-linecap="butt" d="m48.0 48.0l384.0 0l0 384.0l-384.0 0z" fill-rule="evenodd"/></g><path fill="#000000" fill-opacity="0.0" d="m48.0 432.0l284.40945 -383.55905" fill-rule="evenodd"/><path stroke="#0000ff" stroke-width="2.0" stroke-linejoin="round" stroke-linecap="butt" d="m48.0 432.0l284.40945 -383.55905" fill-rule="evenodd"/><path fill="#000000" fill-opacity="0.0" d="m89.291336 398.5092l32.0 0l0 40.0l-32.0 0z" fill-rule="evenodd"/><path fill="#000000" d="m106.697586 415.75732l1.671875 0q-0.625 2.0 -1.171875 4.828125q0.640625 3.515625 1.171875 4.84375l-1.625 0q-0.390625 -0.90625 -0.59375 -1.765625q-0.75 1.984375 -3.15625 1.984375q-1.828125 0 -2.9375 -1.359375q-1.109375 -1.375 -1.109375 -3.71875q0 -2.40625 1.109375 -3.71875q1.125 -1.3125 2.96875 -1.3125q1.125 0 1.84375 0.46875q0.734375 0.453125 1.34375 1.390625q0.0625 -0.328125 0.484375 -1.640625zm-3.40625 1.140625q-1.171875 0 -1.859375 0.953125q-0.6875 0.9375 -0.6875 2.71875q0 1.75 0.640625 2.75q0.65625 0.984375 1.8125 0.984375q1.140625 0 1.890625 -0.984375q0.75 -0.984375 0.75 -2.8125q0 -1.796875 -0.703125 -2.703125q-0.703125 -0.90625 -1.84375 -0.90625z" fill-rule="nonzero"/><path fill="#000000" fill-opacity="0.0" d="m69.76378 378.2362l25.196854 0l0 40.0l-25.196854 0z" fill-rule="evenodd"/><path fill="#000000" d="m81.67003 403.92184l0 4.9375l-1.625 0l0 -12.875q0 -1.53125 0.40625 -2.390625q0.421875 -0.875 1.421875 -1.4375q1.015625 -0.578125 2.25 -0.578125q1.84375 0 2.78125 1.046875q0.9375 1.046875 0.9375 2.296875q0 1.21875 -0.765625 1.96875q-0.75 0.75 -1.734375 0.921875q1.578125 0.15625 2.4375 1.140625q0.875 0.984375 0.875 2.421875q0 1.546875 -1.015625 2.78125q-1.015625 1.21875 -2.9375 1.21875q-1.96875 0 -3.03125 -1.453125zm1.453125 -6.640625q1.671875 0 2.4375 -0.578125q0.765625 -0.578125 0.765625 -1.6875q0 -0.890625 -0.65625 -1.484375q-0.640625 -0.609375 -1.625 -0.609375q-0.84375 0 -1.46875 0.453125q-0.625 0.4375 -0.765625 0.984375q-0.140625 0.546875 -0.140625 1.921875l0 3.671875q0 1.5625 0.21875 2.296875q0.21875 0.734375 0.9375 1.328125q0.71875 0.59375 1.65625 0.59375q1.140625 0 1.796875 -0.78125q0.671875 -0.78125 0.671875 -1.921875q0 -0.953125 -0.5 -1.703125q-0.484375 -0.75 -1.203125 -1.015625q-0.703125 -0.265625 -1.890625 -0.265625l-0.234375 0l0 -1.203125z" fill-rule="nonzero"/><path fill="#000000" fill-opacity="0.0" d="m264.99475 48.0l56.0 0l0 40.0l-56.0 0z" fill-rule="evenodd"/><path fill="#000000" d="m282.401 65.24812l1.671875 0q-0.625 2.0 -1.171875 4.828125q0.640625 3.515625 1.171875 4.84375l-1.625 0q-0.390625 -0.90625 -0.59375 -1.765625q-0.75 1.984375 -3.15625 1.984375q-1.828125 0 -2.9375 -1.359375q-1.109375 -1.375 -1.109375 -3.71875q0 -2.40625 1.109375 -3.71875q1.125 -1.3125 2.96875 -1.3125q1.125 0 1.84375 0.46875q0.734375 0.453125 1.34375 1.390625q0.0625 -0.328125 0.484375 -1.640625zm-3.40625 1.140625q-1.171875 0 -1.859375 0.953125q-0.6875 0.9375 -0.6875 2.71875q0 1.75 0.640625 2.75q0.65625 0.984375 1.8125 0.984375q1.140625 0 1.890625 -0.984375q0.75 -0.984375 0.75 -2.8125q0 -1.796875 -0.703125 -2.703125q-0.703125 -0.90625 -1.84375 -0.90625zm10.45752 6.375l0 -3.671875l-3.640625 0l0 -1.515625l3.640625 0l0 -3.640625l1.546875 0l0 3.640625l3.640625 0l0 1.515625l-3.640625 0l0 3.671875l-1.546875 0zm9.1293335 0.921875l0 4.9375l-1.625 0l0 -12.875q0 -1.53125 0.40625 -2.390625q0.421875 -0.875 1.421875 -1.4375q1.015625 -0.578125 2.25 -0.578125q1.84375 0 2.78125 1.046875q0.9375 1.046875 0.9375 2.296875q0 1.21875 -0.765625 1.96875q-0.75 0.75 -1.734375 0.921875q1.578125 0.15625 2.4375 1.140625q0.875 0.984375 0.875 2.421875q0 1.546875 -1.015625 2.78125q-1.015625 1.21875 -2.9375 1.21875q-1.96875 0 -3.03125 -1.453125zm1.453125 -6.640625q1.671875 0 2.4375 -0.578125q0.765625 -0.578125 0.765625 -1.6875q0 -0.890625 -0.65625 -1.484375q-0.640625 -0.609375 -1.625 -0.609375q-0.84375 0 -1.46875 0.453125q-0.625 0.4375 -0.765625 0.984375q-0.140625 0.546875 -0.140625 1.921875l0 3.671875q0 1.5625 0.21875 2.296875q0.21875 0.734375 0.9375 1.328125q0.71875 0.59375 1.65625 0.59375q1.140625 0 1.796875 -0.78125q0.671875 -0.78125 0.671875 -1.921875q0 -0.953125 -0.5 -1.703125q-0.484375 -0.75 -1.203125 -1.015625q-0.703125 -0.265625 -1.890625 -0.265625l-0.234375 0l0 -1.203125z" fill-rule="nonzero"/><path fill="#000000" fill-opacity="0.0" d="m365.37448 99.03045l37.66931 75.21259l-40.188995 20.125992l-37.66928 -75.2126z" fill-rule="evenodd"/><path fill="#000000" d="m363.39844 119.88883q1.9868469 3.4785538 0.9898987 6.9660034q-1.0247498 3.7459946 -4.0703125 5.445915q-3.688202 2.0916443 -7.4624634 0.8362732q-3.2919922 -1.0949707 -4.894104 -3.9448853q-2.0917969 -3.688118 -0.82250977 -7.4692154q1.1925659 -3.5853958 4.5036926 -5.243561q2.9199524 -1.4622574 6.0440063 -0.7025986q3.850891 0.88497925 5.711792 4.112068zm-11.676727 10.495796l4.3387146 -1.1067963l-0.42681885 -0.8522186q-2.2847595 0.39276123 -3.2153625 -1.4653473l-1.0635681 -2.123558q1.1529846 -7.324219E-4 4.8369446 2.0512848q0.671051 0.32798767 1.6634216 0.49505615q1.2579651 0.20883179 2.1241455 -0.2249527q1.4320984 -0.62979126 1.885376 -2.0275955q0.56500244 -1.5236588 -0.26763916 -3.1861725q-0.8326416 -1.6625214 -2.4543152 -2.4231339q-1.4538879 -0.60001373 -2.515686 -0.06828308q-1.5926819 0.7975998 -0.9279785 2.1248245q0.33587646 0.67059326 0.81814575 0.8310013q0.43338013 0.20236206 1.1039734 -0.13346863q0.39120483 -0.19589996 0.5935669 -0.6292572q0.13250732 -0.39837646 -0.09851074 -1.0341034q0.33529663 -0.16791534 0.9923706 0.16707611q0.53134155 0.39794922 0.90219116 1.1383972q0.39193726 0.95705414 -0.06866455 1.8517609q-0.39782715 0.7060013 -1.250061 1.132782q-1.6276855 0.72774506 -3.493927 0.0022201538q-1.8172607 -0.6626663 -3.082428 -1.1999054q-1.5935669 -0.53004456 -3.1870422 -0.88539886l-0.7963562 0.39879608l3.589508 7.166992z" fill-rule="nonzero"/><path fill="#000000" d="m359.0075 139.9772l0.9512329 1.3410034q-0.8102417 0.5455475 -1.0053711 1.3422546q-0.18115234 0.7897186 0.32263184 1.7956085q0.5037842 1.0059052 1.1538391 1.2919769q0.664032 0.27908325 1.2228699 -7.7819824E-4q0.48898315 -0.24487305 0.5654907 -0.82489014q0.04864502 -0.39134216 -0.2597046 -1.7397461q-0.3925476 -1.8305054 -0.41400146 -2.6061096q-0.01449585 -0.76164246 0.3414917 -1.3418427q0.3699646 -0.5871887 1.0126343 -0.9090271q0.57281494 -0.28684998 1.1947632 -0.26628113q0.6358948 0.0135650635 1.1881409 0.31367493q0.41940308 0.20936584 0.8809204 0.7121887q0.48251343 0.5097809 0.8183594 1.1803741q0.5108032 1.019867 0.6022339 1.9351807q0.09146118 0.9153137 -0.22958374 1.530426q-0.31402588 0.62908936 -1.0823364 1.1885834l-0.9162903 -1.3410339q0.62164307 -0.43362427 0.7609558 -1.0975342q0.14630127 -0.6499481 -0.28051758 -1.5021515q-0.5107727 -1.019867 -1.0629883 -1.2850494q-0.54522705 -0.25120544 -0.99227905 -0.027313232q-0.27941895 0.1399231 -0.4329834 0.42651367q-0.14654541 0.30055237 -0.10430908 0.7687073q0.021148682 0.25152588 0.26651 1.4742126q0.37850952 1.7676086 0.42092896 2.5152588q0.04244995 0.74765015 -0.2855835 1.3487854q-0.32803345 0.6011505 -1.082489 0.97895813q-0.740448 0.37080383 -1.6000366 0.259552q-0.8525696 -0.09729004 -1.6216431 -0.7256775q-0.75512695 -0.63539124 -1.2658997 -1.6552582q-0.83966064 -1.6764832 -0.5888977 -2.9204407q0.25772095 -1.2299805 1.5219116 -2.1601257zm12.141235 5.0862427l1.6904907 -0.8465729l0.7346802 1.466919l-1.6904907 0.8465729l-0.7346802 -1.466919zm-10.254761 5.1354065l8.648071 -4.330826l0.7347107 1.4669342l-8.648071 4.3308105l-0.7347107 -1.466919zm1.8561096 3.7059937l8.648071 -4.3308105l0.65771484 1.3132477l-1.2294312 0.61569214q1.9008484 0.2363739 2.8034668 2.0385895q0.3918152 0.7823639 0.44128418 1.5789185q0.049438477 0.79655457 -0.2506714 1.3487701q-0.2791443 0.5591736 -0.84487915 0.99975586q-0.3631897 0.2867279 -1.3830566 0.7974701l-5.3229675 2.6656494l-0.7347107 -1.466919l5.26709 -2.63768q0.89416504 -0.44776917 1.2362976 -0.84628296q0.36309814 -0.39154053 0.4116516 -0.9575653q0.04852295 -0.5660248 -0.24533081 -1.1527863q-0.46881104 -0.9360504 -1.4124146 -1.3197632q-0.92266846 -0.3767395 -2.585205 0.45584106l-4.722229 2.3648071l-0.7346802 -1.4669342zm8.819916 14.853897l-4.414856 2.2108917l-0.72769165 -1.4529572l11.512146 -5.765091q1.3691711 -0.68566895 2.3194885 -0.7072296q0.9713135 -0.014587402 1.9220886 0.6276703q0.9717407 0.6492157 1.5245056 1.7529144q0.8256531 1.6485443 0.30941772 2.9555511q-0.51623535 1.3070068 -1.6339417 1.8667297q-1.0897217 0.54571533 -2.10318 0.19699097q-1.0064697 -0.33477783 -1.6009827 -1.13797q0.5669861 1.4810181 0.07165527 2.6901855q-0.4883423 1.2231293 -1.7736816 1.866806q-1.3831177 0.6926575 -2.9416504 0.33728027q-1.5445557 -0.36238098 -2.405182 -2.08078q-0.8816223 -1.760315 -0.058135986 -3.3609924zm6.58844 -1.6742249q0.74868774 1.494873 1.6084595 1.920578q0.8597717 0.4256897 1.8517151 -0.07106018q0.7963562 -0.3988037 1.0333862 -1.2514343q0.2579956 -0.84565735 -0.18283081 -1.7258148q-0.37783813 -0.75442505 -1.0628662 -1.1103516q-0.67108154 -0.3629303 -1.223053 -0.24378967q-0.5519409 0.119140625 -1.7814026 0.7348175l-3.2832031 1.6441803q-1.3970947 0.699646 -1.95578 1.2240753q-0.5586853 0.52441406 -0.7677002 1.4329376q-0.20904541 0.90852356 0.21078491 1.7467651q0.5107727 1.019867 1.5032043 1.2568054q0.99942017 0.2509308 2.0193176 -0.2598114q0.8522339 -0.42678833 1.2989502 -1.2096863q0.45367432 -0.7689209 0.36932373 -1.5305176q-0.07736206 -0.7476196 -0.60913086 -1.8094025l-0.10494995 -0.20956421l1.0757751 -0.5387268z" fill-rule="nonzero"/><path fill="#000000" fill-opacity="0.0" d="m202.65845 314.604l81.41733 -35.3071l17.88977 41.259827l-81.41733 35.3071z" fill-rule="evenodd"/><path fill="#000000" d="m223.37608 317.72662q3.582779 -1.7921143 7.0099487 -0.60446167q3.683792 1.2296143 5.2132416 4.364258q1.8851471 3.797882 0.42364502 7.4972534q-1.2747498 3.226654 -4.2086334 4.6692505q-3.7977905 1.885376 -7.5031586 0.40963745q-3.5141907 -1.3883362 -4.9873047 -4.785858q-1.2990723 -2.9961243 -0.36836243 -6.073578q1.0958862 -3.7962646 4.420624 -5.4765015zm9.836151 12.237488l-0.86595154 -4.393158l-0.8744507 0.37921143q0.2662201 2.302948 -1.6403503 3.1297607l-2.1789398 0.9449158q0.062820435 -1.1513062 2.3147736 -4.7165833q0.3644867 -0.651947 0.58599854 -1.633606q0.2778473 -1.2445374 -0.10752869 -2.1333313q-0.549881 -1.4646301 -1.920578 -1.9942932q-1.4901886 -0.6481018 -3.1960602 0.09164429q-1.7058868 0.7397766 -2.5547333 2.3170776q-0.67922974 1.4186096 -0.20683289 2.5080872q0.70858765 1.6342468 2.0704193 1.0436707q0.6880951 -0.29837036 0.87483215 -0.77108765q0.22595215 -0.42156982 -0.072402954 -1.1096497q-0.17404175 -0.4013977 -0.59558105 -0.62734985q-0.3904724 -0.15426636 -1.0379639 0.041381836q-0.14916992 -0.34405518 0.2215271 -0.98168945q0.42663574 -0.50857544 1.1864014 -0.83807373q0.9771881 -0.33859253 1.8451385 0.17062378q0.68299866 0.4361267 1.062149 1.3106079q0.6369171 1.6653137 -0.19036865 3.488739q-0.76182556 1.7780151 -1.3679962 3.0116272q-0.6170654 1.5619507 -1.0597229 3.1334229l0.35429382 0.81710815l7.3539276 -3.1890564z" fill-rule="nonzero"/><path fill="#000000" d="m249.32417 319.84338l1.5635376 -0.4396057q0.4151764 1.6252441 -0.20913696 2.934845q-0.6161804 1.2890625 -2.078354 1.9231567q-1.8205719 0.78948975 -3.440277 0.07833862q-1.6197052 -0.71118164 -2.58313 -2.933197q-0.62779236 -1.447876 -0.62091064 -2.72818q0.0068969727 -1.280304 0.7516937 -2.233429q0.7386017 -0.96746826 1.8854065 -1.4647827q1.4478455 -0.62786865 2.6822968 -0.2946167q1.2344513 0.33325195 2.0767517 1.5688782l-1.3689423 0.8491211q-0.60040283 -0.79556274 -1.3234863 -1.0099487q-0.7293091 -0.22872925 -1.4747314 0.09454346q-1.1324768 0.49108887 -1.4949341 1.6190491q-0.36245728 1.1279297 0.4020691 2.8912048q0.7769623 1.7919312 1.8193359 2.310669q1.0361633 0.50439453 2.1399689 0.025726318q0.8887787 -0.385437 1.2403259 -1.1850586q0.36587524 -0.80584717 0.03251648 -2.0067139zm1.6917114 -2.1471863q-1.0690918 -2.4656982 -0.21694946 -4.231781q0.717926 -1.4864807 2.3664703 -2.2013855q1.8348999 -0.7956848 3.518158 -0.095062256q1.6770325 0.6863098 2.5969543 2.807953q0.73968506 1.7059326 0.65249634 2.9188843q-0.09338379 1.1986084 -0.8463135 2.1722717q-0.73861694 0.96746826 -1.8997498 1.4710083q-1.8635712 0.8081665 -3.5262756 0.1156311q-1.66893 -0.70684814 -2.6447906 -2.9575195zm1.5481873 -0.6713867q0.7396698 1.7059326 1.8437042 2.248993q1.1121521 0.5225525 2.244629 0.031433105q1.1181335 -0.48486328 1.4968262 -1.6539307q0.37249756 -1.1833801 -0.38580322 -2.932312q-0.71481323 -1.6485901 -1.8269653 -2.171112q-1.1121521 -0.5225525 -2.230301 -0.03765869q-1.1324615 0.49111938 -1.5111694 1.6601562q-0.37057495 1.1484985 0.3690796 2.8544312zm8.704941 -1.6460876l1.3914185 -0.875885q0.5000305 0.8390808 1.28479 1.0778198q0.7785034 0.22439575 1.8106384 -0.22317505q1.032135 -0.44760132 1.3536072 -1.0809021q0.31524658 -0.64764404 0.06661987 -1.2210693q-0.2175293 -0.5017395 -0.79244995 -0.6100769q-0.38806152 -0.070129395 -1.7514038 0.16345215q-1.8493652 0.29104614 -2.6249695 0.26974487q-0.761261 -0.027526855 -1.3209534 -0.4149475q-0.56591797 -0.40179443 -0.85183716 -1.0612183q-0.25482178 -0.58773804 -0.2000122 -1.2076111q0.048583984 -0.6341858 0.37869263 -1.1690369q0.23217773 -0.40725708 0.75964355 -0.84036255q0.535614 -0.45367432 1.2236938 -0.7520752q1.0464783 -0.4537964 1.9654236 -0.49465942q0.91897583 -0.040863037 1.5154419 0.31359863q0.6108093 0.34820557 1.1271057 1.1461792l-1.3894958 0.8410034q-0.39871216 -0.6445923 -1.0539246 -0.820282q-0.64086914 -0.18191528 -1.5153198 0.19729614q-1.0464478 0.4537964 -1.3416748 0.99057007q-0.2808838 0.5305481 -0.081970215 0.98928833q0.124298096 0.28668213 0.40200806 0.45581055q0.2920227 0.16287231 0.7617798 0.1465149q0.25231934 -0.007232666 1.4866333 -0.18487549q1.7857971 -0.28051758 2.5346375 -0.28167725q0.74884033 -0.0011291504 1.3309937 0.3595276q0.5821533 0.36065674 0.91778564 1.1347656q0.32943726 0.75979614 0.17095947 1.6119385q-0.14413452 0.84591675 -0.81396484 1.5791931q-0.6760254 0.7189636 -1.7225037 1.17276q-1.7202148 0.7459717 -2.9484253 0.427063q-1.2138977 -0.32513428 -2.0729675 -1.6386719zm16.108276 -5.1801453l1.9641724 4.529999l-1.4908752 0.6465149l-5.121704 -11.812439q-0.6091614 -1.4048767 -0.5783081 -2.35495q0.038970947 -0.9706421 0.732666 -1.884552q0.70181274 -0.9345093 1.834259 -1.4255981q1.6915588 -0.733551 2.9681091 -0.14605713q1.2765503 0.5874634 1.7738342 1.734314q0.48480225 1.1181641 0.08074951 2.1108704q-0.38974 0.98651123 -1.2244873 1.5358276q1.5100098 -0.48449707 2.690033 0.07672119q1.1943665 0.5550232 1.7662048 1.8738708q0.61535645 1.41922 0.17459106 2.95578q-0.44696045 1.5222473 -2.2101746 2.2868958q-1.8062134 0.78326416 -3.3590698 -0.12719727zm-1.3085022 -6.6707153q1.5338745 -0.66519165 2.0062866 -1.5002136q0.47244263 -0.83499146 0.03112793 -1.8528137q-0.35427856 -0.8171387 -1.1925659 -1.1007996q-0.83013916 -0.30419922 -1.7332458 0.08743286q-0.7741089 0.33569336 -1.1672363 1.0000916q-0.39938354 0.65005493 -0.31085205 1.2077332q0.088531494 0.55770874 0.63552856 1.8192139l1.4606628 3.3688354q0.62158203 1.4335632 1.1144104 2.0202942q0.49282837 0.58673096 1.3884277 0.84552q0.8956299 0.25878906 1.7557373 -0.11419678q1.0464478 -0.4537964 1.337738 -1.4316711q0.30563354 -0.9840698 -0.1481018 -2.0305786q-0.3791504 -0.8744507 -1.1362305 -1.3636475q-0.7427368 -0.49539185 -1.507843 -0.453125q-0.7507324 0.03604126 -1.84021 0.5084839l-0.21502686 0.09326172l-0.47860718 -1.1038208z" fill-rule="nonzero"/><path fill="#000000" fill-opacity="0.0" d="m332.42258 47.700787l99.84253 197.79527" fill-rule="evenodd"/><path stroke="#0000ff" stroke-width="2.0" stroke-linejoin="round" stroke-linecap="butt" d="m332.42258 47.700787l99.84253 197.79527" fill-rule="evenodd"/><path fill="#000000" fill-opacity="0.0" d="m48.0 432.0l384.0 -186.48819" fill-rule="evenodd"/><path stroke="#0000ff" stroke-width="2.0" stroke-linejoin="round" stroke-linecap="butt" d="m48.0 432.0l384.0 -186.48819" fill-rule="evenodd"/><path fill="#000000" fill-opacity="0.0" d="m168.61417 426.43622l142.77167 0l0 44.97638l-142.77167 0z" fill-rule="evenodd"/><path fill="#000000" d="m186.37979 437.54373q4.0 -0.21875 6.671875 2.234375q2.890625 2.59375 3.046875 6.078125q0.21875 4.234375 -2.59375 7.046875q-2.453125 2.453125 -5.71875 2.609375q-4.234375 0.21875 -7.046875 -2.609375q-2.671875 -2.671875 -2.671875 -6.375q0 -3.265625 2.078125 -5.71875q2.515625 -3.046875 6.234375 -3.265625zm0.515625 15.515625q2.0 0 3.1875 -1.046875q1.265625 -1.109375 1.265625 -2.734375q0.078125 -2.375 -2.75 -3.265625q1.1875 -0.296875 1.78125 -1.1875q0.59375 -0.75 0.59375 -1.640625q0.078125 -1.265625 -0.890625 -2.078125q-1.109375 -0.96875 -3.046875 -1.03125q-1.78125 0 -2.8125 0.8125q-1.109375 0.890625 -1.046875 1.921875q0.078125 0.53125 0.296875 0.828125q0.375 0.4375 0.890625 0.4375q0.671875 0 0.96875 -0.296875q0.375 -0.375 0.375 -0.8125q0 -0.59375 -0.59375 -1.046875q0.140625 -0.359375 0.671875 -0.59375q0.515625 -0.21875 1.109375 -0.21875q0.8125 0.078125 1.265625 0.671875q0.4375 0.59375 0.4375 1.265625q0 1.25 -0.515625 1.84375q-0.453125 0.59375 -1.5625 0.59375q-0.140625 0.078125 -0.375 0q-0.296875 -0.0625 -0.59375 -0.0625q-0.65625 0.0625 -0.515625 0.8125q0.078125 0.515625 0.75 0.4375q0.890625 -0.0625 1.109375 0q0.8125 0.078125 1.265625 0.671875q0.515625 0.671875 0.515625 1.703125q0 1.640625 -0.8125 2.3125q-0.53125 0.515625 -1.484375 0.515625q-1.265625 0 -1.71875 -0.75q1.125 -0.296875 1.1875 -1.25q0.078125 -0.59375 -0.515625 -1.125q-0.4375 -0.359375 -0.96875 -0.359375q-0.59375 0 -1.03125 0.515625q-0.59375 0.59375 -0.453125 1.40625q0.15625 0.890625 0.890625 1.640625q1.125 1.109375 3.125 1.109375z" fill-rule="nonzero"/><path fill="#000000" d="m209.34435 449.80936l1.609375 0.21875q-0.265625 1.65625 -1.359375 2.609375q-1.078125 0.9375 -2.671875 0.9375q-1.984375 0 -3.1875 -1.296875q-1.203125 -1.296875 -1.203125 -3.71875q0 -1.578125 0.515625 -2.75q0.515625 -1.171875 1.578125 -1.75q1.0625 -0.59375 2.3125 -0.59375q1.578125 0 2.578125 0.796875q1.0 0.796875 1.28125 2.265625l-1.59375 0.234375q-0.234375 -0.96875 -0.8125 -1.453125q-0.578125 -0.5 -1.390625 -0.5q-1.234375 0 -2.015625 0.890625q-0.78125 0.890625 -0.78125 2.8125q0 1.953125 0.75 2.84375q0.75 0.875 1.953125 0.875q0.96875 0 1.609375 -0.59375q0.65625 -0.59375 0.828125 -1.828125zm2.40625 -1.296875q0 -2.6875 1.484375 -3.96875q1.25 -1.078125 3.046875 -1.078125q2.0 0 3.265625 1.3125q1.265625 1.296875 1.265625 3.609375q0 1.859375 -0.5625 2.9375q-0.5625 1.0625 -1.640625 1.65625q-1.0625 0.59375 -2.328125 0.59375q-2.03125 0 -3.28125 -1.296875q-1.25 -1.3125 -1.25 -3.765625zm1.6875 0q0 1.859375 0.796875 2.796875q0.8125 0.921875 2.046875 0.921875q1.21875 0 2.03125 -0.921875q0.8125 -0.9375 0.8125 -2.84375q0 -1.796875 -0.8125 -2.71875q-0.8125 -0.921875 -2.03125 -0.921875q-1.234375 0 -2.046875 0.921875q-0.796875 0.90625 -0.796875 2.765625zm8.641342 1.953125l1.625 -0.25q0.125 0.96875 0.75 1.5q0.625 0.515625 1.75 0.515625q1.125 0 1.671875 -0.453125q0.546875 -0.46875 0.546875 -1.09375q0 -0.546875 -0.484375 -0.875q-0.328125 -0.21875 -1.671875 -0.546875q-1.8125 -0.46875 -2.515625 -0.796875q-0.6875 -0.328125 -1.046875 -0.90625q-0.359375 -0.59375 -0.359375 -1.3125q0 -0.640625 0.296875 -1.1875q0.296875 -0.5625 0.8125 -0.921875q0.375 -0.28125 1.03125 -0.46875q0.671875 -0.203125 1.421875 -0.203125q1.140625 0 2.0 0.328125q0.859375 0.328125 1.265625 0.890625q0.421875 0.5625 0.578125 1.5l-1.609375 0.21875q-0.109375 -0.75 -0.640625 -1.171875q-0.515625 -0.421875 -1.46875 -0.421875q-1.140625 0 -1.625 0.375q-0.46875 0.375 -0.46875 0.875q0 0.3125 0.1875 0.578125q0.203125 0.265625 0.640625 0.4375q0.234375 0.09375 1.4375 0.421875q1.75 0.453125 2.4375 0.75q0.6875 0.296875 1.078125 0.859375q0.390625 0.5625 0.390625 1.40625q0 0.828125 -0.484375 1.546875q-0.46875 0.71875 -1.375 1.125q-0.90625 0.390625 -2.046875 0.390625q-1.875 0 -2.875 -0.78125q-0.984375 -0.78125 -1.25 -2.328125zm22.339554 -6.78125l1.671875 0q-0.625 2.0 -1.171875 4.828125q0.640625 3.515625 1.171875 4.84375l-1.625 0q-0.390625 -0.90625 -0.59375 -1.765625q-0.75 1.984375 -3.15625 1.984375q-1.828125 0 -2.9375 -1.359375q-1.109375 -1.375 -1.109375 -3.71875q0 -2.40625 1.109375 -3.71875q1.125 -1.3125 2.96875 -1.3125q1.125 0 1.84375 0.46875q0.734375 0.453125 1.34375 1.390625q0.0625 -0.328125 0.484375 -1.640625zm-3.40625 1.140625q-1.171875 0 -1.859375 0.953125q-0.6875 0.9375 -0.6875 2.71875q0 1.75 0.640625 2.75q0.65625 0.984375 1.8125 0.984375q1.140625 0 1.890625 -0.984375q0.75 -0.984375 0.75 -2.8125q0 -1.796875 -0.703125 -2.703125q-0.703125 -0.90625 -1.84375 -0.90625zm18.515823 4.984375l1.609375 0.21875q-0.265625 1.65625 -1.359375 2.609375q-1.078125 0.9375 -2.671875 0.9375q-1.984375 0 -3.1875 -1.296875q-1.203125 -1.296875 -1.203125 -3.71875q0 -1.578125 0.515625 -2.75q0.515625 -1.171875 1.578125 -1.75q1.0625 -0.59375 2.3125 -0.59375q1.578125 0 2.578125 0.796875q1.0 0.796875 1.28125 2.265625l-1.59375 0.234375q-0.234375 -0.96875 -0.8125 -1.453125q-0.578125 -0.5 -1.390625 -0.5q-1.234375 0 -2.015625 0.890625q-0.78125 0.890625 -0.78125 2.8125q0 1.953125 0.75 2.84375q0.75 0.875 1.953125 0.875q0.96875 0 1.609375 -0.59375q0.65625 -0.59375 0.828125 -1.828125zm2.40625 -1.296875q0 -2.6875 1.484375 -3.96875q1.25 -1.078125 3.046875 -1.078125q2.0 0 3.265625 1.3125q1.265625 1.296875 1.265625 3.609375q0 1.859375 -0.5625 2.9375q-0.5625 1.0625 -1.640625 1.65625q-1.0625 0.59375 -2.328125 0.59375q-2.03125 0 -3.28125 -1.296875q-1.25 -1.3125 -1.25 -3.765625zm1.6875 0q0 1.859375 0.796875 2.796875q0.8125 0.921875 2.046875 0.921875q1.21875 0 2.03125 -0.921875q0.8125 -0.9375 0.8125 -2.84375q0 -1.796875 -0.8125 -2.71875q-0.8125 -0.921875 -2.03125 -0.921875q-1.234375 0 -2.046875 0.921875q-0.796875 0.90625 -0.796875 2.765625zm8.641357 1.953125l1.625 -0.25q0.125 0.96875 0.75 1.5q0.625 0.515625 1.75 0.515625q1.125 0 1.671875 -0.453125q0.546875 -0.46875 0.546875 -1.09375q0 -0.546875 -0.484375 -0.875q-0.328125 -0.21875 -1.671875 -0.546875q-1.8125 -0.46875 -2.515625 -0.796875q-0.6875 -0.328125 -1.046875 -0.90625q-0.359375 -0.59375 -0.359375 -1.3125q0 -0.640625 0.296875 -1.1875q0.296875 -0.5625 0.8125 -0.921875q0.375 -0.28125 1.03125 -0.46875q0.671875 -0.203125 1.421875 -0.203125q1.140625 0 2.0 0.328125q0.859375 0.328125 1.265625 0.890625q0.421875 0.5625 0.578125 1.5l-1.609375 0.21875q-0.109375 -0.75 -0.640625 -1.171875q-0.515625 -0.421875 -1.46875 -0.421875q-1.140625 0 -1.625 0.375q-0.46875 0.375 -0.46875 0.875q0 0.3125 0.1875 0.578125q0.203125 0.265625 0.640625 0.4375q0.234375 0.09375 1.4375 0.421875q1.75 0.453125 2.4375 0.75q0.6875 0.296875 1.078125 0.859375q0.390625 0.5625 0.390625 1.40625q0 0.828125 -0.484375 1.546875q-0.46875 0.71875 -1.375 1.125q-0.90625 0.390625 -2.046875 0.390625q-1.875 0 -2.875 -0.78125q-0.984375 -0.78125 -1.25 -2.328125zm16.839539 1.65625l0 4.9375l-1.625 0l0 -12.875q0 -1.53125 0.40625 -2.390625q0.421875 -0.875 1.421875 -1.4375q1.015625 -0.578125 2.25 -0.578125q1.84375 0 2.78125 1.046875q0.9375 1.046875 0.9375 2.296875q0 1.21875 -0.765625 1.96875q-0.75 0.75 -1.734375 0.921875q1.578125 0.15625 2.4375 1.140625q0.875 0.984375 0.875 2.421875q0 1.546875 -1.015625 2.78125q-1.015625 1.21875 -2.9375 1.21875q-1.96875 0 -3.03125 -1.453125zm1.453125 -6.640625q1.671875 0 2.4375 -0.578125q0.765625 -0.578125 0.765625 -1.6875q0 -0.890625 -0.65625 -1.484375q-0.640625 -0.609375 -1.625 -0.609375q-0.84375 0 -1.46875 0.453125q-0.625 0.4375 -0.765625 0.984375q-0.140625 0.546875 -0.140625 1.921875l0 3.671875q0 1.5625 0.21875 2.296875q0.21875 0.734375 0.9375 1.328125q0.71875 0.59375 1.65625 0.59375q1.140625 0 1.796875 -0.78125q0.671875 -0.78125 0.671875 -1.921875q0 -0.953125 -0.5 -1.703125q-0.484375 -0.75 -1.203125 -1.015625q-0.703125 -0.265625 -1.890625 -0.265625l-0.234375 0l0 -1.203125z" fill-rule="nonzero"/><path fill="#000000" fill-opacity="0.0" d="m468.308 277.35486l0 154.20471l-44.97638 0l0 -154.20471z" fill-rule="evenodd"/><path fill="#000000" d="m457.2005 295.12048q0.21875 4.0 -2.234375 6.671875q-2.59375 2.890625 -6.078125 3.046875q-4.234375 0.21875 -7.046875 -2.59375q-2.453125 -2.453125 -2.609375 -5.71875q-0.21875 -4.234375 2.609375 -7.046875q2.671875 -2.671875 6.375 -2.671875q3.265625 0 5.71875 2.078125q3.046875 2.515625 3.265625 6.234375zm-15.515625 0.515625q0 2.0 1.046875 3.1875q1.109375 1.265625 2.734375 1.265625q2.375 0.078125 3.265625 -2.75q0.296875 1.1875 1.1875 1.78125q0.75 0.59375 1.640625 0.59375q1.265625 0.078125 2.078125 -0.890625q0.96875 -1.109375 1.03125 -3.046875q0 -1.78125 -0.8125 -2.8125q-0.890625 -1.109375 -1.921875 -1.046875q-0.53125 0.078125 -0.828125 0.296875q-0.4375 0.375 -0.4375 0.890625q0 0.671875 0.296875 0.96875q0.375 0.375 0.8125 0.375q0.59375 0 1.046875 -0.59375q0.359375 0.140625 0.59375 0.671875q0.21875 0.515625 0.21875 1.109375q-0.078125 0.8125 -0.671875 1.265625q-0.59375 0.4375 -1.265625 0.4375q-1.25 0 -1.84375 -0.515625q-0.59375 -0.453125 -0.59375 -1.5625q-0.078125 -0.140625 0 -0.375q0.0625 -0.296875 0.0625 -0.59375q-0.0625 -0.65625 -0.8125 -0.515625q-0.515625 0.078125 -0.4375 0.75q0.0625 0.890625 0 1.109375q-0.078125 0.8125 -0.671875 1.265625q-0.671875 0.515625 -1.703125 0.515625q-1.640625 0 -2.3125 -0.8125q-0.515625 -0.53125 -0.515625 -1.484375q0 -1.265625 0.75 -1.71875q0.296875 1.125 1.25 1.1875q0.59375 0.078125 1.125 -0.515625q0.359375 -0.4375 0.359375 -0.96875q0 -0.59375 -0.515625 -1.03125q-0.59375 -0.59375 -1.40625 -0.453125q-0.890625 0.15625 -1.640625 0.890625q-1.109375 1.125 -1.109375 3.125z" fill-rule="nonzero"/><path fill="#000000" d="m444.27863 311.1163l0.25 1.625q-0.96875 0.125 -1.5 0.75q-0.515625 0.625 -0.515625 1.75q0 1.125 0.453125 1.671875q0.46875 0.546875 1.09375 0.546875q0.546875 0 0.875 -0.484375q0.21875 -0.328125 0.546875 -1.671875q0.46875 -1.8125 0.796875 -2.515625q0.328125 -0.6875 0.90625 -1.046875q0.59375 -0.359375 1.3125 -0.359375q0.640625 0 1.1875 0.296875q0.5625 0.296875 0.921875 0.8125q0.28125 0.375 0.46875 1.03125q0.203125 0.671875 0.203125 1.421875q0 1.140625 -0.328125 2.0q-0.328125 0.859375 -0.890625 1.265625q-0.5625 0.421875 -1.5 0.578125l-0.21875 -1.609375q0.75 -0.109375 1.171875 -0.640625q0.421875 -0.515625 0.421875 -1.46875q0 -1.140625 -0.375 -1.625q-0.375 -0.46875 -0.875 -0.46875q-0.3125 0 -0.578125 0.1875q-0.265625 0.203125 -0.4375 0.640625q-0.09375 0.234375 -0.421875 1.4375q-0.453125 1.75 -0.75 2.4375q-0.296875 0.6875 -0.859375 1.078125q-0.5625 0.390625 -1.40625 0.390625q-0.828125 0 -1.546875 -0.484375q-0.71875 -0.46875 -1.125 -1.375q-0.390625 -0.90625 -0.390625 -2.046875q0 -1.875 0.78125 -2.875q0.78125 -0.984375 2.328125 -1.25zm8.578125 9.984375l1.890625 0l0 1.640625l-1.890625 0l0 -1.640625zm-11.46875 0l9.671875 0l0 1.640625l-9.671875 0l0 -1.640625zm0 4.144806l9.671875 0l0 1.46875l-1.375 0q1.59375 1.0625 1.59375 3.078125q0 0.875 -0.3125 1.609375q-0.3125 0.734375 -0.828125 1.09375q-0.5 0.375 -1.203125 0.515625q-0.453125 0.09375 -1.59375 0.09375l-5.953125 0l0 -1.640625l5.890625 0q1.0 0 1.484375 -0.203125q0.5 -0.1875 0.796875 -0.671875q0.296875 -0.484375 0.296875 -1.140625q0 -1.046875 -0.671875 -1.8125q-0.65625 -0.75 -2.515625 -0.75l-5.28125 0l0 -1.640625zm9.671875 22.730896l0 1.671875q-2.0 -0.625 -4.828125 -1.171875q-3.515625 0.640625 -4.84375 1.171875l0 -1.625q0.90625 -0.390625 1.765625 -0.59375q-1.984375 -0.75 -1.984375 -3.15625q0 -1.828125 1.359375 -2.9375q1.375 -1.109375 3.71875 -1.109375q2.40625 0 3.71875 1.109375q1.3125 1.125 1.3125 2.96875q0 1.125 -0.46875 1.84375q-0.453125 0.734375 -1.390625 1.34375q0.328125 0.0625 1.640625 0.484375zm-1.140625 -3.40625q0 -1.171875 -0.953125 -1.859375q-0.9375 -0.6875 -2.71875 -0.6875q-1.75 0 -2.75 0.640625q-0.984375 0.65625 -0.984375 1.8125q0 1.140625 0.984375 1.890625q0.984375 0.75 2.8125 0.75q1.796875 0 2.703125 -0.703125q0.90625 -0.703125 0.90625 -1.84375zm-4.984375 18.515839l-0.21875 1.609375q-1.65625 -0.265625 -2.609375 -1.359375q-0.9375 -1.078125 -0.9375 -2.671875q0 -1.984375 1.296875 -3.1875q1.296875 -1.203125 3.71875 -1.203125q1.578125 0 2.75 0.515625q1.171875 0.515625 1.75 1.578125q0.59375 1.0625 0.59375 2.3125q0 1.578125 -0.796875 2.578125q-0.796875 1.0 -2.265625 1.28125l-0.234375 -1.59375q0.96875 -0.234375 1.453125 -0.8125q0.5 -0.578125 0.5 -1.390625q0 -1.234375 -0.890625 -2.015625q-0.890625 -0.78125 -2.8125 -0.78125q-1.953125 0 -2.84375 0.75q-0.875 0.75 -0.875 1.953125q0 0.96875 0.59375 1.609375q0.59375 0.65625 1.828125 0.828125zm1.296875 2.40625q2.6875 0 3.96875 1.484375q1.078125 1.25 1.078125 3.046875q0 2.0 -1.3125 3.265625q-1.296875 1.265625 -3.609375 1.265625q-1.859375 0 -2.9375 -0.5625q-1.0625 -0.5625 -1.65625 -1.640625q-0.59375 -1.0625 -0.59375 -2.328125q0 -2.03125 1.296875 -3.28125q1.3125 -1.25 3.765625 -1.25zm0 1.6875q-1.859375 0 -2.796875 0.796875q-0.921875 0.8125 -0.921875 2.046875q0 1.21875 0.921875 2.03125q0.9375 0.8125 2.84375 0.8125q1.796875 0 2.71875 -0.8125q0.921875 -0.8125 0.921875 -2.03125q0 -1.234375 -0.921875 -2.046875q-0.90625 -0.796875 -2.765625 -0.796875zm-1.953125 8.641327l0.25 1.625q-0.96875 0.125 -1.5 0.75q-0.515625 0.625 -0.515625 1.75q0 1.125 0.453125 1.671875q0.46875 0.546875 1.09375 0.546875q0.546875 0 0.875 -0.484375q0.21875 -0.328125 0.546875 -1.671875q0.46875 -1.8125 0.796875 -2.515625q0.328125 -0.6875 0.90625 -1.046875q0.59375 -0.359375 1.3125 -0.359375q0.640625 0 1.1875 0.296875q0.5625 0.296875 0.921875 0.8125q0.28125 0.375 0.46875 1.03125q0.203125 0.671875 0.203125 1.421875q0 1.140625 -0.328125 2.0q-0.328125 0.859375 -0.890625 1.265625q-0.5625 0.421875 -1.5 0.578125l-0.21875 -1.609375q0.75 -0.109375 1.171875 -0.640625q0.421875 -0.515625 0.421875 -1.46875q0 -1.140625 -0.375 -1.625q-0.375 -0.46875 -0.875 -0.46875q-0.3125 0 -0.578125 0.1875q-0.265625 0.203125 -0.4375 0.640625q-0.09375 0.234375 -0.421875 1.4375q-0.453125 1.75 -0.75 2.4375q-0.296875 0.6875 -0.859375 1.078125q-0.5625 0.390625 -1.40625 0.390625q-0.828125 0 -1.546875 -0.484375q-0.71875 -0.46875 -1.125 -1.375q-0.390625 -0.90625 -0.390625 -2.046875q0 -1.875 0.78125 -2.875q0.78125 -0.984375 2.328125 -1.25zm-1.65625 16.83957l-4.9375 0l0 -1.625l12.875 0q1.53125 0 2.390625 0.40625q0.875 0.421875 1.4375 1.421875q0.578125 1.015625 0.578125 2.25q0 1.84375 -1.046875 2.78125q-1.046875 0.9375 -2.296875 0.9375q-1.21875 0 -1.96875 -0.765625q-0.75 -0.75 -0.921875 -1.734375q-0.15625 1.578125 -1.140625 2.4375q-0.984375 0.875 -2.421875 0.875q-1.546875 0 -2.78125 -1.015625q-1.21875 -1.015625 -1.21875 -2.9375q0 -1.96875 1.453125 -3.03125zm6.640625 1.453125q0 1.671875 0.578125 2.4375q0.578125 0.765625 1.6875 0.765625q0.890625 0 1.484375 -0.65625q0.609375 -0.640625 0.609375 -1.625q0 -0.84375 -0.453125 -1.46875q-0.4375 -0.625 -0.984375 -0.765625q-0.546875 -0.140625 -1.921875 -0.140625l-3.671875 0q-1.5625 0 -2.296875 0.21875q-0.734375 0.21875 -1.328125 0.9375q-0.59375 0.71875 -0.59375 1.65625q0 1.140625 0.78125 1.796875q0.78125 0.671875 1.921875 0.671875q0.953125 0 1.703125 -0.5q0.75 -0.484375 1.015625 -1.203125q0.265625 -0.703125 0.265625 -1.890625l0 -0.234375l1.203125 0z" fill-rule="nonzero"/><path fill="#000000" fill-opacity="0.0" d="m406.40945 173.01575l32.0 0l0 40.0l-32.0 0z" fill-rule="evenodd"/><path fill="#000000" d="m423.8157 190.26387l1.671875 0q-0.625 2.0 -1.171875 4.828125q0.640625 3.515625 1.171875 4.84375l-1.625 0q-0.390625 -0.90625 -0.59375 -1.765625q-0.75 1.984375 -3.15625 1.984375q-1.828125 0 -2.9375 -1.359375q-1.109375 -1.375 -1.109375 -3.71875q0 -2.40625 1.109375 -3.71875q1.125 -1.3125 2.96875 -1.3125q1.125 0 1.84375 0.46875q0.734375 0.453125 1.34375 1.390625q0.0625 -0.328125 0.484375 -1.640625zm-3.40625 1.140625q-1.171875 0 -1.859375 0.953125q-0.6875 0.9375 -0.6875 2.71875q0 1.75 0.640625 2.75q0.65625 0.984375 1.8125 0.984375q1.140625 0 1.890625 -0.984375q0.75 -0.984375 0.75 -2.8125q0 -1.796875 -0.703125 -2.703125q-0.703125 -0.90625 -1.84375 -0.90625z" fill-rule="nonzero"/><path fill="#000000" fill-opacity="0.0" d="m163.86266 219.32387l39.02362 -51.685043l31.905502 24.094482l-39.02362 51.685043z" fill-rule="evenodd"/><path fill="#000000" d="m183.43149 211.83951q2.2356873 -3.3240967 5.8032837 -3.9780884q3.8116302 -0.74380493 6.6863556 1.2313232q3.5108795 2.377243 4.0605774 6.316757q0.4794464 3.4361267 -1.363617 6.1364746q-2.3769073 3.5111694 -6.3285065 4.0513763q-3.742157 0.52215576 -6.697296 -1.7095032q-2.6060028 -1.9680023 -3.3114166 -5.1048584q-0.91560364 -3.8438263 1.1506195 -6.9434814zm10.557129 11.144516l4.2462006 -5.623886l-0.8229523 -0.6214905q-0.7503967 1.0976105 -1.3725586 1.1955719q-0.60995483 0.18551636 -1.4329071 -0.43595886l-7.7057953 -5.819275l-0.44250488 0.5860901q-0.009140015 1.8531799 -1.534378 3.8733063l0.8354187 0.6308899l0.5366516 -0.7107849q0.40486145 -0.5362091 0.86772156 -0.65657043q0.4534607 -0.1078949 1.1641846 0.428833l4.800537 3.6252747q0.76060486 0.57440186 0.8115082 1.2589722q0.035629272 0.57514954 -0.7740631 1.6475525l0.822937 0.6214752z" fill-rule="nonzero"/><path fill="#000000" d="m209.52989 203.51535l-0.9885864 1.3093262l-8.341705 -6.2994995q0.09111023 0.8128357 -0.031280518 1.934372q-0.1254425 1.0996399 -0.3623352 1.8801575l-1.2718353 -0.9604645q0.31730652 -1.4834137 0.20303345 -2.8619843q-0.11427307 -1.3785706 -0.54585266 -2.2331543l0.6402283 -0.84794617l10.698334 8.079193z" fill-rule="nonzero"/><path fill="#000000" fill-opacity="0.0" d="m315.20303 9.391604l163.30707 0l0 44.976376l-163.30707 0z" fill-rule="evenodd"/><path fill="#000000" d="m332.96866 20.499104q4.0 -0.21875 6.671875 2.234375q2.890625 2.59375 3.046875 6.078125q0.21875 4.234375 -2.59375 7.046875q-2.453125 2.453125 -5.71875 2.609375q-4.234375 0.21875 -7.046875 -2.609375q-2.671875 -2.671875 -2.671875 -6.375q0 -3.265625 2.078125 -5.71875q2.515625 -3.046875 6.234375 -3.265625zm3.40625 13.8125q-0.4375 -0.375 -0.4375 -1.9375l2.59375 0l0 -1.109375l-2.59375 0l0 -8.171875l-1.1875 0l-6.765625 8.25l0 1.03125l5.71875 0q0.078125 1.484375 -0.671875 1.9375q-0.4375 0.296875 -1.78125 0.296875l0 1.03125l6.53125 0l0 -1.03125q-1.03125 0 -1.40625 -0.296875zm-2.671875 -8.015625l0 4.96875l-4.234375 0l4.234375 -4.96875z" fill-rule="nonzero"/><path fill="#000000" d="m348.96445 33.42098l1.625 -0.25q0.125 0.96875 0.75 1.5q0.625 0.515625 1.75 0.515625q1.125 0 1.671875 -0.453125q0.546875 -0.46875 0.546875 -1.09375q0 -0.546875 -0.484375 -0.875q-0.328125 -0.21875 -1.671875 -0.546875q-1.8125 -0.46875 -2.515625 -0.796875q-0.6875 -0.328125 -1.046875 -0.90625q-0.359375 -0.59375 -0.359375 -1.3125q0 -0.640625 0.296875 -1.1875q0.296875 -0.5625 0.8125 -0.921875q0.375 -0.28125 1.03125 -0.46875q0.671875 -0.203125 1.421875 -0.203125q1.140625 0 2.0 0.328125q0.859375 0.328125 1.265625 0.890625q0.421875 0.5625 0.578125 1.5l-1.609375 0.21875q-0.109375 -0.75 -0.640625 -1.171875q-0.515625 -0.421875 -1.46875 -0.421875q-1.140625 0 -1.625 0.375q-0.46875 0.375 -0.46875 0.875q0 0.3125 0.1875 0.578125q0.203125 0.265625 0.640625 0.4375q0.234375 0.09375 1.4375 0.421875q1.75 0.453125 2.4375 0.75q0.6875 0.296875 1.078125 0.859375q0.390625 0.5625 0.390625 1.40625q0 0.828125 -0.484375 1.546875q-0.46875 0.71875 -1.375 1.125q-0.90625 0.390625 -2.046875 0.390625q-1.875 0 -2.875 -0.78125q-0.984375 -0.78125 -1.25 -2.328125zm9.984375 -8.578125l0 -1.890625l1.640625 0l0 1.890625l-1.640625 0zm0 11.46875l0 -9.671875l1.640625 0l0 9.671875l-1.640625 0zm4.1448364 0l0 -9.671875l1.46875 0l0 1.375q1.0625 -1.59375 3.078125 -1.59375q0.875 0 1.609375 0.3125q0.734375 0.3125 1.09375 0.828125q0.375 0.5 0.515625 1.203125q0.09375 0.453125 0.09375 1.59375l0 5.953125l-1.640625 0l0 -5.890625q0 -1.0 -0.203125 -1.484375q-0.1875 -0.5 -0.671875 -0.796875q-0.484375 -0.296875 -1.140625 -0.296875q-1.046875 0 -1.8125 0.671875q-0.75 0.65625 -0.75 2.515625l0 5.28125l-1.640625 0zm22.730896 -9.671875l1.671875 0q-0.625 2.0 -1.171875 4.828125q0.640625 3.515625 1.171875 4.84375l-1.625 0q-0.390625 -0.90625 -0.59375 -1.765625q-0.75 1.984375 -3.15625 1.984375q-1.828125 0 -2.9375 -1.359375q-1.109375 -1.375 -1.109375 -3.71875q0 -2.40625 1.109375 -3.71875q1.125 -1.3125 2.96875 -1.3125q1.125 0 1.84375 0.46875q0.734375 0.453125 1.34375 1.390625q0.0625 -0.328125 0.484375 -1.640625zm-3.40625 1.140625q-1.171875 0 -1.859375 0.953125q-0.6875 0.9375 -0.6875 2.71875q0 1.75 0.640625 2.75q0.65625 0.984375 1.8125 0.984375q1.140625 0 1.890625 -0.984375q0.75 -0.984375 0.75 -2.8125q0 -1.796875 -0.703125 -2.703125q-0.703125 -0.90625 -1.84375 -0.90625zm11.547058 5.640625l1.625 -0.25q0.125 0.96875 0.75 1.5q0.625 0.515625 1.75 0.515625q1.125 0 1.671875 -0.453125q0.546875 -0.46875 0.546875 -1.09375q0 -0.546875 -0.484375 -0.875q-0.328125 -0.21875 -1.671875 -0.546875q-1.8125 -0.46875 -2.515625 -0.796875q-0.6875 -0.328125 -1.046875 -0.90625q-0.359375 -0.59375 -0.359375 -1.3125q0 -0.640625 0.296875 -1.1875q0.296875 -0.5625 0.8125 -0.921875q0.375 -0.28125 1.03125 -0.46875q0.671875 -0.203125 1.421875 -0.203125q1.140625 0 2.0 0.328125q0.859375 0.328125 1.265625 0.890625q0.421875 0.5625 0.578125 1.5l-1.609375 0.21875q-0.109375 -0.75 -0.640625 -1.171875q-0.515625 -0.421875 -1.46875 -0.421875q-1.140625 0 -1.625 0.375q-0.46875 0.375 -0.46875 0.875q0 0.3125 0.1875 0.578125q0.203125 0.265625 0.640625 0.4375q0.234375 0.09375 1.4375 0.421875q1.75 0.453125 2.4375 0.75q0.6875 0.296875 1.078125 0.859375q0.390625 0.5625 0.390625 1.40625q0 0.828125 -0.484375 1.546875q-0.46875 0.71875 -1.375 1.125q-0.90625 0.390625 -2.046875 0.390625q-1.875 0 -2.875 -0.78125q-0.984375 -0.78125 -1.25 -2.328125zm9.984375 -8.578125l0 -1.890625l1.640625 0l0 1.890625l-1.640625 0zm0 11.46875l0 -9.671875l1.640625 0l0 9.671875l-1.640625 0zm4.1448364 0l0 -9.671875l1.46875 0l0 1.375q1.0625 -1.59375 3.078125 -1.59375q0.875 0 1.609375 0.3125q0.734375 0.3125 1.09375 0.828125q0.375 0.5 0.515625 1.203125q0.09375 0.453125 0.09375 1.59375l0 5.953125l-1.640625 0l0 -5.890625q0 -1.0 -0.203125 -1.484375q-0.1875 -0.5 -0.671875 -0.796875q-0.484375 -0.296875 -1.140625 -0.296875q-1.046875 0 -1.8125 0.671875q-0.75 0.65625 -0.75 2.515625l0 5.28125l-1.640625 0zm17.230896 -1.234375l0 4.9375l-1.625 0l0 -12.875q0 -1.53125 0.40625 -2.390625q0.421875 -0.875 1.421875 -1.4375q1.015625 -0.578125 2.25 -0.578125q1.84375 0 2.78125 1.046875q0.9375 1.046875 0.9375 2.296875q0 1.21875 -0.765625 1.96875q-0.75 0.75 -1.734375 0.921875q1.578125 0.15625 2.4375 1.140625q0.875 0.984375 0.875 2.421875q0 1.546875 -1.015625 2.78125q-1.015625 1.21875 -2.9375 1.21875q-1.96875 0 -3.03125 -1.453125zm1.453125 -6.640625q1.671875 0 2.4375 -0.578125q0.765625 -0.578125 0.765625 -1.6875q0 -0.890625 -0.65625 -1.484375q-0.640625 -0.609375 -1.625 -0.609375q-0.84375 0 -1.46875 0.453125q-0.625 0.4375 -0.765625 0.984375q-0.140625 0.546875 -0.140625 1.921875l0 3.671875q0 1.5625 0.21875 2.296875q0.21875 0.734375 0.9375 1.328125q0.71875 0.59375 1.65625 0.59375q1.140625 0 1.796875 -0.78125q0.671875 -0.78125 0.671875 -1.921875q0 -0.953125 -0.5 -1.703125q-0.484375 -0.75 -1.203125 -1.015625q-0.703125 -0.265625 -1.890625 -0.265625l-0.234375 0l0 -1.203125z" fill-rule="nonzero"/><path fill="#000000" fill-opacity="0.0" d="m468.308 67.42835l0 164.37796l-44.97638 0l0 -164.37796z" fill-rule="evenodd"/><path fill="#000000" d="m457.2005 85.19398q0.21875 4.0 -2.234375 6.671875q-2.59375 2.890625 -6.078125 3.046875q-4.234375 0.21875 -7.046875 -2.59375q-2.453125 -2.453125 -2.609375 -5.71875q-0.21875 -4.234375 2.609375 -7.046875q2.671875 -2.671875 6.375 -2.671875q3.265625 0 5.71875 2.078125q3.046875 2.515625 3.265625 6.234375zm-13.8125 3.40625q0.375 -0.4375 1.9375 -0.4375l0 2.59375l1.109375 0l0 -2.59375l8.171875 0l0 -1.1875l-8.25 -6.765625l-1.03125 0l0 5.71875q-1.484375 0.078125 -1.9375 -0.671875q-0.296875 -0.4375 -0.296875 -1.78125l-1.03125 0l0 6.53125l1.03125 0q0 -1.03125 0.296875 -1.40625zm8.015625 -2.671875l-4.96875 0l0 -4.234375l4.96875 4.234375z" fill-rule="nonzero"/><path fill="#000000" d="m444.93488 108.15853l-0.21875 1.609375q-1.65625 -0.265625 -2.609375 -1.359375q-0.9375 -1.078125 -0.9375 -2.671875q0 -1.984375 1.296875 -3.1875q1.296875 -1.203125 3.71875 -1.203125q1.578125 0 2.75 0.515625q1.171875 0.515625 1.75 1.578125q0.59375 1.0625 0.59375 2.3125q0 1.578125 -0.796875 2.578125q-0.796875 1.0 -2.265625 1.28125l-0.234375 -1.59375q0.96875 -0.234375 1.453125 -0.8125q0.5 -0.578125 0.5 -1.390625q0 -1.234375 -0.890625 -2.015625q-0.890625 -0.78125 -2.8125 -0.78125q-1.953125 0 -2.84375 0.75q-0.875 0.75 -0.875 1.953125q0 0.96875 0.59375 1.609375q0.59375 0.65625 1.828125 0.828125zm1.296875 2.40625q2.6875 0 3.96875 1.484375q1.078125 1.25 1.078125 3.046875q0 2.0 -1.3125 3.265625q-1.296875 1.265625 -3.609375 1.265625q-1.859375 0 -2.9375 -0.5625q-1.0625 -0.5625 -1.65625 -1.640625q-0.59375 -1.0625 -0.59375 -2.328125q0 -2.03125 1.296875 -3.28125q1.3125 -1.25 3.765625 -1.25zm0 1.6875q-1.859375 0 -2.796875 0.796875q-0.921875 0.8125 -0.921875 2.046875q0 1.21875 0.921875 2.03125q0.9375 0.8125 2.84375 0.8125q1.796875 0 2.71875 -0.8125q0.921875 -0.8125 0.921875 -2.03125q0 -1.234375 -0.921875 -2.046875q-0.90625 -0.796875 -2.765625 -0.796875zm-1.953125 8.641342l0.25 1.625q-0.96875 0.125 -1.5 0.75q-0.515625 0.625 -0.515625 1.75q0 1.125 0.453125 1.671875q0.46875 0.546875 1.09375 0.546875q0.546875 0 0.875 -0.484375q0.21875 -0.328125 0.546875 -1.671875q0.46875 -1.8125 0.796875 -2.515625q0.328125 -0.6875 0.90625 -1.046875q0.59375 -0.359375 1.3125 -0.359375q0.640625 0 1.1875 0.296875q0.5625 0.296875 0.921875 0.8125q0.28125 0.375 0.46875 1.03125q0.203125 0.671875 0.203125 1.421875q0 1.140625 -0.328125 2.0q-0.328125 0.859375 -0.890625 1.265625q-0.5625 0.42186737 -1.5 0.5781174l-0.21875 -1.6093674q0.75 -0.109375 1.171875 -0.640625q0.421875 -0.515625 0.421875 -1.46875q0 -1.140625 -0.375 -1.625q-0.375 -0.46875 -0.875 -0.46875q-0.3125 0 -0.578125 0.1875q-0.265625 0.203125 -0.4375 0.640625q-0.09375 0.234375 -0.421875 1.4375q-0.453125 1.75 -0.75 2.4375q-0.296875 0.6874924 -0.859375 1.0781174q-0.5625 0.390625 -1.40625 0.390625q-0.828125 0 -1.546875 -0.484375q-0.71875 -0.46874237 -1.125 -1.3749924q-0.390625 -0.90625 -0.390625 -2.046875q0 -1.875 0.78125 -2.875q0.78125 -0.984375 2.328125 -1.25zm6.78125 22.339546l0 1.671875q-2.0 -0.625 -4.828125 -1.171875q-3.515625 0.640625 -4.84375 1.171875l0 -1.625q0.90625 -0.390625 1.765625 -0.59375q-1.984375 -0.75 -1.984375 -3.15625q0 -1.828125 1.359375 -2.9375q1.375 -1.109375 3.71875 -1.109375q2.40625 0 3.71875 1.109375q1.3125 1.125 1.3125 2.96875q0 1.125 -0.46875 1.84375q-0.453125 0.734375 -1.390625 1.34375q0.328125 0.0625 1.640625 0.484375zm-1.140625 -3.40625q0 -1.171875 -0.953125 -1.859375q-0.9375 -0.6875 -2.71875 -0.6875q-1.75 0 -2.75 0.640625q-0.984375 0.65625 -0.984375 1.8125q0 1.140625 0.984375 1.890625q0.984375 0.75 2.8125 0.75q1.796875 0 2.703125 -0.703125q0.90625 -0.703125 0.90625 -1.84375zm-5.640625 11.547073l0.25 1.625q-0.96875 0.125 -1.5 0.75q-0.515625 0.625 -0.515625 1.75q0 1.125 0.453125 1.671875q0.46875 0.546875 1.09375 0.546875q0.546875 0 0.875 -0.484375q0.21875 -0.328125 0.546875 -1.671875q0.46875 -1.8125 0.796875 -2.515625q0.328125 -0.6875 0.90625 -1.046875q0.59375 -0.359375 1.3125 -0.359375q0.640625 0 1.1875 0.296875q0.5625 0.296875 0.921875 0.8125q0.28125 0.375 0.46875 1.03125q0.203125 0.671875 0.203125 1.421875q0 1.140625 -0.328125 2.0q-0.328125 0.859375 -0.890625 1.265625q-0.5625 0.421875 -1.5 0.578125l-0.21875 -1.609375q0.75 -0.109375 1.171875 -0.640625q0.421875 -0.515625 0.421875 -1.46875q0 -1.140625 -0.375 -1.625q-0.375 -0.46875 -0.875 -0.46875q-0.3125 0 -0.578125 0.1875q-0.265625 0.203125 -0.4375 0.640625q-0.09375 0.234375 -0.421875 1.4375q-0.453125 1.75 -0.75 2.4375q-0.296875 0.6875 -0.859375 1.078125q-0.5625 0.390625 -1.40625 0.390625q-0.828125 0 -1.546875 -0.484375q-0.71875 -0.46875 -1.125 -1.375q-0.390625 -0.90625 -0.390625 -2.046875q0 -1.875 0.78125 -2.875q0.78125 -0.984375 2.328125 -1.25zm8.578125 9.984375l1.890625 0l0 1.640625l-1.890625 0l0 -1.640625zm-11.46875 0l9.671875 0l0 1.640625l-9.671875 0l0 -1.640625zm0 4.144821l9.671875 0l0 1.46875l-1.375 0q1.59375 1.0625 1.59375 3.078125q0 0.875 -0.3125 1.609375q-0.3125 0.734375 -0.828125 1.09375q-0.5 0.375 -1.203125 0.515625q-0.453125 0.09375 -1.59375 0.09375l-5.953125 0l0 -1.640625l5.890625 0q1.0 0 1.484375 -0.203125q0.5 -0.1875 0.796875 -0.671875q0.296875 -0.484375 0.296875 -1.140625q0 -1.046875 -0.671875 -1.8125q-0.65625 -0.75 -2.515625 -0.75l-5.28125 0l0 -1.640625zm1.234375 17.230896l-4.9375 0l0 -1.625l12.875 0q1.53125 0 2.390625 0.40625q0.875 0.421875 1.4375 1.421875q0.578125 1.015625 0.578125 2.25q0 1.84375 -1.046875 2.78125q-1.046875 0.9375 -2.296875 0.9375q-1.21875 0 -1.96875 -0.765625q-0.75 -0.75 -0.921875 -1.734375q-0.15625 1.578125 -1.140625 2.4375q-0.984375 0.875 -2.421875 0.875q-1.546875 0 -2.78125 -1.015625q-1.21875 -1.015625 -1.21875 -2.9375q0 -1.96875 1.453125 -3.03125zm6.640625 1.453125q0 1.671875 0.578125 2.4375q0.578125 0.765625 1.6875 0.765625q0.890625 0 1.484375 -0.65625q0.609375 -0.640625 0.609375 -1.625q0 -0.84375 -0.453125 -1.46875q-0.4375 -0.625 -0.984375 -0.765625q-0.546875 -0.140625 -1.921875 -0.140625l-3.671875 0q-1.5625 0 -2.296875 0.21875q-0.734375 0.21875 -1.328125 0.9375q-0.59375 0.71875 -0.59375 1.65625q0 1.140625 0.78125 1.796875q0.78125 0.671875 1.921875 0.671875q0.953125 0 1.703125 -0.5q0.75 -0.484375 1.015625 -1.203125q0.265625 -0.703125 0.265625 -1.890625l0 -0.234375l1.203125 0z" fill-rule="nonzero"/><path fill="#000000" fill-opacity="0.0" d="m107.9983 9.391604l142.77164 0l0 44.976376l-142.77164 0z" fill-rule="evenodd"/><path fill="#000000" d="m125.76392 20.499104q3.9999924 -0.21875 6.6718674 2.234375q2.890625 2.59375 3.046875 6.078125q0.21875 4.234375 -2.59375 7.046875q-2.453125 2.453125 -5.7187424 2.609375q-4.234375 0.21875 -7.046875 -2.609375q-2.671875 -2.671875 -2.671875 -6.375q0 -3.265625 2.078125 -5.71875q2.515625 -3.046875 6.234375 -3.265625zm0.296875 15.4375q1.78125 0 2.9687424 -0.8125q1.546875 -0.96875 1.625 -2.96875q0.15625 -2.234375 -1.109375 -3.421875q-1.046875 -1.03125 -2.6718674 -1.03125q-1.5625 0 -2.828125 0.96875l0.234375 -3.203125l4.0781174 0q0.890625 0 1.1875 -0.296875q0.59375 -0.4375 0.59375 -1.84375l-6.9062424 0l-0.515625 6.671875l1.1875 0.078125q0.671875 -0.96875 2.0 -0.96875q0.8125 0 1.34375 0.59375q0.734375 0.75 0.734375 2.15625q0 1.484375 -0.59375 2.21875q-0.59375 0.828125 -1.484375 0.828125q-0.8125 0.0625 -1.484375 -0.59375q0.59375 -0.375 0.515625 -1.1875q0 -1.421875 -1.625 -1.1875q-1.046875 0.140625 -1.109375 1.1875q-0.078125 1.1875 1.109375 2.0q1.265625 0.8125 2.75 0.8125z" fill-rule="nonzero"/><path fill="#000000" d="m148.72847 32.76473l1.609375 0.21875q-0.265625 1.65625 -1.359375 2.609375q-1.078125 0.9375 -2.671875 0.9375q-1.984375 0 -3.1875 -1.296875q-1.203125 -1.296875 -1.203125 -3.71875q0 -1.578125 0.515625 -2.75q0.515625 -1.171875 1.578125 -1.75q1.0625 -0.59375 2.3125 -0.59375q1.578125 0 2.578125 0.796875q1.0 0.796875 1.28125 2.265625l-1.59375 0.234375q-0.234375 -0.96875 -0.8125 -1.453125q-0.578125 -0.5 -1.390625 -0.5q-1.234375 0 -2.015625 0.890625q-0.78125 0.890625 -0.78125 2.8125q0 1.953125 0.75 2.84375q0.75 0.875 1.953125 0.875q0.96875 0 1.609375 -0.59375q0.65625 -0.59375 0.828125 -1.828125zm2.40625 -1.296875q0 -2.6875 1.484375 -3.96875q1.25 -1.078125 3.046875 -1.078125q2.0 0 3.265625 1.3125q1.265625 1.296875 1.265625 3.609375q0 1.859375 -0.5625 2.9375q-0.5625 1.0625 -1.640625 1.65625q-1.0625 0.59375 -2.328125 0.59375q-2.03125 0 -3.28125 -1.296875q-1.25 -1.3125 -1.25 -3.765625zm1.6875 0q0 1.859375 0.796875 2.796875q0.8125 0.921875 2.046875 0.921875q1.21875 0 2.03125 -0.921875q0.8125 -0.9375 0.8125 -2.84375q0 -1.796875 -0.8125 -2.71875q-0.8125 -0.921875 -2.03125 -0.921875q-1.234375 0 -2.046875 0.921875q-0.796875 0.90625 -0.796875 2.765625zm8.641342 1.953125l1.625 -0.25q0.125 0.96875 0.75 1.5q0.625 0.515625 1.75 0.515625q1.125 0 1.671875 -0.453125q0.546875 -0.46875 0.546875 -1.09375q0 -0.546875 -0.484375 -0.875q-0.328125 -0.21875 -1.671875 -0.546875q-1.8125 -0.46875 -2.515625 -0.796875q-0.6875 -0.328125 -1.046875 -0.90625q-0.359375 -0.59375 -0.359375 -1.3125q0 -0.640625 0.296875 -1.1875q0.296875 -0.5625 0.8125 -0.921875q0.375 -0.28125 1.03125 -0.46875q0.671875 -0.203125 1.421875 -0.203125q1.140625 0 2.0 0.328125q0.859375 0.328125 1.265625 0.890625q0.421875 0.5625 0.578125 1.5l-1.609375 0.21875q-0.109375 -0.75 -0.640625 -1.171875q-0.515625 -0.421875 -1.46875 -0.421875q-1.140625 0 -1.625 0.375q-0.46875 0.375 -0.46875 0.875q0 0.3125 0.1875 0.578125q0.203125 0.265625 0.640625 0.4375q0.234375 0.09375 1.4375 0.421875q1.75 0.453125 2.4375 0.75q0.6875 0.296875 1.078125 0.859375q0.390625 0.5625 0.390625 1.40625q0 0.828125 -0.484375 1.546875q-0.46875 0.71875 -1.375 1.125q-0.90625 0.390625 -2.046875 0.390625q-1.875 0 -2.875 -0.78125q-0.984375 -0.78125 -1.25 -2.328125zm22.339554 -6.78125l1.671875 0q-0.625 2.0 -1.171875 4.828125q0.640625 3.515625 1.171875 4.84375l-1.625 0q-0.390625 -0.90625 -0.59375 -1.765625q-0.75 1.984375 -3.15625 1.984375q-1.828125 0 -2.9375 -1.359375q-1.109375 -1.375 -1.109375 -3.71875q0 -2.40625 1.109375 -3.71875q1.125 -1.3125 2.96875 -1.3125q1.125 0 1.84375 0.46875q0.734375 0.453125 1.34375 1.390625q0.0625 -0.328125 0.484375 -1.640625zm-3.40625 1.140625q-1.171875 0 -1.859375 0.953125q-0.6875 0.9375 -0.6875 2.71875q0 1.75 0.640625 2.75q0.65625 0.984375 1.8125 0.984375q1.140625 0 1.890625 -0.984375q0.75 -0.984375 0.75 -2.8125q0 -1.796875 -0.703125 -2.703125q-0.703125 -0.90625 -1.84375 -0.90625zm15.640823 6.375l0 -3.671875l-3.640625 0l0 -1.515625l3.640625 0l0 -3.640625l1.546875 0l0 3.640625l3.640625 0l0 1.515625l-3.640625 0l0 3.671875l-1.546875 0zm14.312637 0.921875l0 4.9375l-1.625 0l0 -12.875q0 -1.53125 0.40625 -2.390625q0.421875 -0.875 1.421875 -1.4375q1.015625 -0.578125 2.25 -0.578125q1.84375 0 2.78125 1.046875q0.9375 1.046875 0.9375 2.296875q0 1.21875 -0.765625 1.96875q-0.75 0.75 -1.734375 0.921875q1.578125 0.15625 2.4375 1.140625q0.875 0.984375 0.875 2.421875q0 1.546875 -1.015625 2.78125q-1.015625 1.21875 -2.9375 1.21875q-1.96875 0 -3.03125 -1.453125zm1.453125 -6.640625q1.671875 0 2.4375 -0.578125q0.765625 -0.578125 0.765625 -1.6875q0 -0.890625 -0.65625 -1.484375q-0.640625 -0.609375 -1.625 -0.609375q-0.84375 0 -1.46875 0.453125q-0.625 0.4375 -0.765625 0.984375q-0.140625 0.546875 -0.140625 1.921875l0 3.671875q0 1.5625 0.21875 2.296875q0.21875 0.734375 0.9375 1.328125q0.71875 0.59375 1.65625 0.59375q1.140625 0 1.796875 -0.78125q0.671875 -0.78125 0.671875 -1.921875q0 -0.953125 -0.5 -1.703125q-0.484375 -0.75 -1.203125 -1.015625q-0.703125 -0.265625 -1.890625 -0.265625l-0.234375 0l0 -1.203125z" fill-rule="nonzero"/><path fill="#000000" fill-opacity="0.0" d="m54.62999 168.61417l0.031497955 142.77167l-44.97638 0l-0.031496048 -142.77167z" fill-rule="evenodd"/><path fill="#000000" d="m43.526413 186.37979q0.2196312 4.0 -2.2329025 6.671875q-2.593113 2.890625 -6.0774536 3.046875q-4.2343273 0.21875 -7.047449 -2.59375q-2.4536648 -2.453125 -2.6106358 -5.71875q-0.2196846 -4.234375 2.6078205 -7.046875q2.6712856 -2.671875 6.3744106 -2.671875q3.265625 0 5.719208 2.078125q3.047432 2.515625 3.267002 6.234375zm-15.437435 0.296875q3.9291382E-4 1.78125 0.8131542 2.96875q0.9690914 1.546875 2.9691086 1.625q2.2344112 0.15625 3.421629 -1.109375q1.0310211 -1.046875 1.0306625 -2.671875q-3.4332275E-4 -1.5625 -0.9693756 -2.828125l3.2031784 0.234375l9.0026855E-4 4.078125q1.9454956E-4 0.890625 0.2971344 1.1875q0.4376335 0.59375 1.8438835 0.59375l-0.0015258789 -6.90625l-6.6719856 -0.515625l-0.0778656 1.1875q0.9688988 0.671875 0.9691925 2.0q1.7929077E-4 0.8125 -0.59345245 1.34375q-0.7498398 0.734375 -2.1560898 0.734375q-1.484375 0 -2.2188816 -0.59375q-0.8282547 -0.59375 -0.82845116 -1.484375q-0.06267929 -0.8125 0.59342194 -1.484375q0.3751316 0.59375 1.1876144 0.515625q1.421875 0 1.1871414 -1.625q-0.14085579 -1.046875 -1.187746 -1.109375q-1.1875172 -0.078125 -1.999754 1.109375q-0.8122215 1.265625 -0.81189346 2.75z" fill-rule="nonzero"/><path fill="#000000" d="m30.608065 202.3756l0.25035858 1.625q-0.9687214 0.125 -1.4998341 0.75q-0.5154877 0.625 -0.5152378 1.75q2.4795532E-4 1.125 0.45349312 1.671875q0.46887016 0.546875 1.0938702 0.546875q0.546875 0 0.8748932 -0.484375q0.21867752 -0.328125 0.5465069 -1.671875q0.46834946 -1.8125 0.79631805 -2.515625q0.32797623 -0.6875 0.9060211 -1.046875q0.5936699 -0.359375 1.3124199 -0.359375q0.640625 0 1.1875648 0.296875q0.56256485 0.296875 0.9220543 0.8125q0.28133392 0.375 0.46897888 1.03125q0.20327377 0.671875 0.2034378 1.421875q2.5177002E-4 1.140625 -0.3276825 2.0q-0.32793427 0.859375 -0.8903465 1.265625q-0.56240845 0.421875 -1.4998741 0.578125l-0.21910477 -1.609375q0.7499771 -0.109375 1.1717339 -0.640625q0.42176056 -0.515625 0.42155075 -1.46875q-2.5177002E-4 -1.140625 -0.37535858 -1.625q-0.375103 -0.46875 -0.875103 -0.46875q-0.3125 0 -0.57808304 0.1875q-0.26557922 0.203125 -0.43735886 0.640625q-0.093696594 0.234375 -0.42155838 1.4375q-0.45273972 1.75 -0.7494621 2.4375q-0.2967224 0.6875 -0.8591366 1.078125q-0.56241417 0.390625 -1.4061642 0.390625q-0.828125 0 -1.5469818 -0.484375q-0.718853 -0.46875 -1.1253033 -1.375q-0.39082527 -0.90625 -0.39107513 -2.046875q-4.1389465E-4 -1.875 0.78061485 -2.875q0.78103256 -0.984375 2.3278484 -1.25zm8.580328 9.984375l1.890625 0l3.6239624E-4 1.640625l-1.890625 0l-3.6239624E-4 -1.640625zm-11.46875 0l9.671875 0l3.6239624E-4 1.640625l-9.671875 0l-3.6239624E-4 -1.640625zm9.1552734E-4 4.144821l9.671875 0l3.2424927E-4 1.46875l-1.375 0q1.5939827 1.0625 1.594429 3.078125q1.9073486E-4 0.875 -0.31214523 1.609375q-0.31233978 0.734375 -0.8278847 1.09375q-0.49991608 0.375 -1.2030106 0.515625q-0.45310593 0.09375 -1.5937309 0.09375l-5.953123 0l-3.6239624E-4 -1.640625l5.890623 0q1.0 0 1.484333 -0.203125q0.49995804 -0.1875 0.7967262 -0.671875q0.2967682 -0.484375 0.29662323 -1.140625q-2.3269653E-4 -1.046875 -0.67227554 -1.8125q-0.65641403 -0.75 -2.515789 -0.75l-5.281252 0l-3.604889E-4 -1.640625zm9.6768875 22.730896l3.7002563E-4 1.671875q-2.0001373 -0.625 -4.8283844 -1.171875q-3.515482 0.640625 -4.8434906 1.171875l-3.5858154E-4 -1.625q0.90616417 -0.390625 1.7654934 -0.59375q-1.984539 -0.75 -1.9850712 -3.15625q-4.0245056E-4 -1.828125 1.3587284 -2.9375q1.374754 -1.109375 3.718504 -1.109375q2.40625 0 3.7189941 1.109375q1.312748 1.125 1.3131561 2.96875q2.4795532E-4 1.125 -0.46834183 1.84375q-0.45296478 0.734375 -1.3903313 1.34375q0.32814026 0.0625 1.6407318 0.484375zm-1.1413765 -3.40625q-2.5558472E-4 -1.171875 -0.9535332 -1.859375q-0.9376526 -0.6875 -2.7189026 -0.6875q-1.75 0 -2.7498589 0.640625q-0.98423004 0.65625 -0.98397446 1.8125q2.5177002E-4 1.140625 0.9847927 1.890625q0.98453903 0.75 2.812666 0.75q1.796875 0 2.7029686 -0.703125q0.9060936 -0.703125 0.9058418 -1.84375zm-6.3715477 15.640823l3.671875 0l-8.049011E-4 -3.640625l1.515625 0l8.049011E-4 3.640625l3.640625 0l3.3950806E-4 1.546875l-3.640625 0l8.049011E-4 3.6406403l-1.515625 0l-8.049011E-4 -3.6406403l-3.671873 0l-3.414154E-4 -1.546875zm-0.91871834 14.312637l-4.9375 0l-3.5858154E-4 -1.625l12.875002 0q1.53125 0 2.3907127 0.40625q0.87509537 0.421875 1.4378128 1.421875q0.57835007 1.015625 0.5786247 2.25q4.043579E-4 1.84375 -1.0462646 2.78125q-1.0466652 0.9375 -2.2966652 0.9375q-1.21875 0 -1.9689217 -0.765625q-0.75016403 -0.75 -0.92225647 -1.734375q-0.15590286 1.578125 -1.1400871 2.4375q-0.98418427 0.875 -2.4216824 0.875q-1.546875 0 -2.781475 -1.015625q-1.2189732 -1.015625 -1.2193966 -2.9375q-4.348755E-4 -1.96875 1.4524555 -3.03125zm6.6409473 1.453125q3.6621094E-4 1.671875 0.5786629 2.4375q0.57829285 0.765625 1.6876678 0.765625q0.890625 0 1.48423 -0.65625q0.60923386 -0.640625 0.6090164 -1.625q-1.8692017E-4 -0.84375 -0.45344925 -1.46875q-0.43763733 -0.625 -0.98454285 -0.765625q-0.5469055 -0.140625 -1.9219055 -0.140625l-3.671875 0q-1.5625019 0 -2.2968292 0.21875q-0.7343254 0.21875 -1.3279171 0.9375q-0.5935917 0.71875 -0.5933857 1.65625q2.5177002E-4 1.140625 0.7816467 1.796875q0.7813988 0.671875 1.9220238 0.671875q0.953125 0 1.7030144 -0.5q0.7498932 -0.484375 1.0153618 -1.203125q0.2654686 -0.703125 0.26520538 -1.890625l-4.9591064E-5 -0.234375l1.203125 0z" fill-rule="nonzero"/></g></svg>